<?xml version="1.0" encoding="utf-8"?>
<!-- Generator: Adobe Illustrator 25.4.1, SVG Export Plug-In . SVG Version: 6.00 Build 0)  -->
<svg version="1.1" id="Layer_1" xmlns="http://www.w3.org/2000/svg" xmlns:xlink="http://www.w3.org/1999/xlink" x="0px" y="0px"
	 viewBox="0 0 30 30" style="enable-background:new 0 0 30 30;" xml:space="preserve">
<style type="text/css">
	.st0{opacity:0.15;}
	.st1{fill:#116EF4;}
</style>
<g class="st0">
	<g>
		<path class="st1" d="M15.49,2.05c-7.27,0-13.17,5.9-13.17,13.17s5.9,13.16,13.17,13.16s13.17-5.9,13.17-13.16
			S22.76,2.05,15.49,2.05z M15.49,25.04c-5.43,0-9.83-4.41-9.83-9.83s4.4-9.84,9.83-9.84s9.84,4.41,9.84,9.84
			C25.33,20.64,20.92,25.04,15.49,25.04z"/>
		<path class="st1" d="M15.49,7.92c-4.03,0-7.29,3.26-7.29,7.29s3.26,7.29,7.29,7.29s7.29-3.26,7.29-7.29S19.52,7.92,15.49,7.92z
			 M15.49,20.66c-3.01,0-5.44-2.44-5.44-5.44s2.44-5.44,5.44-5.44s5.45,2.44,5.45,5.44S18.5,20.66,15.49,20.66z"/>
		<circle class="st1" cx="15.49" cy="15.21" r="2.12"/>
	</g>
</g>
</svg>
