<?xml version="1.0" encoding="utf-8"?>
<!-- Generator: Adobe Illustrator 25.4.1, SVG Export Plug-In . SVG Version: 6.00 Build 0)  -->
<svg version="1.1" id="Layer_1" xmlns="http://www.w3.org/2000/svg" xmlns:xlink="http://www.w3.org/1999/xlink" x="0px" y="0px"
	 viewBox="0 0 120 120" style="enable-background:new 0 0 120 120;" xml:space="preserve">
<style type="text/css">
	.st0{fill:#FFFFFF;}
</style>
<rect x="69.74" y="44.44" transform="matrix(0.7071 -0.7071 0.7071 0.7071 -10.7734 71.4293)" class="st0" width="22.18" height="8.57"/>
<rect x="38.04" y="76.14" transform="matrix(0.7071 -0.7071 0.7071 0.7071 -42.4803 58.2943)" class="st0" width="22.18" height="8.57"/>
<rect x="59.78" y="34.47" transform="matrix(0.7071 -0.7071 0.7071 0.7071 -6.6465 61.466)" class="st0" width="22.18" height="8.57"/>
<rect x="28.07" y="66.18" transform="matrix(0.7071 -0.7071 0.7071 0.7071 -38.3537 48.3324)" class="st0" width="22.18" height="8.57"/>
<rect x="34.88" y="37.63" transform="matrix(0.7071 -0.7071 0.7071 0.7071 -22.9785 41.9632)" class="st0" width="8.57" height="22.18"/>
<rect x="44.84" y="27.66" transform="matrix(0.7071 -0.7071 0.7071 0.7071 -13.0153 46.0902)" class="st0" width="8.57" height="22.18"/>
<rect x="76.55" y="59.37" transform="matrix(0.7071 -0.7071 0.7071 0.7071 -26.1487 77.797)" class="st0" width="8.57" height="22.18"/>
<rect x="66.59" y="69.33" transform="matrix(0.7071 -0.7071 0.7071 0.7071 -36.1119 73.6702)" class="st0" width="8.57" height="22.18"/>
<polygon class="st0" points="81.74,97.36 75.69,91.3 60,106.98 44.31,91.3 38.26,97.36 60,119.1 "/>
<polygon class="st0" points="28.29,43.91 22.23,37.85 0.49,59.59 22.23,81.33 28.29,75.28 12.61,59.59 "/>
<polygon class="st0" points="97.76,37.85 91.71,43.91 107.39,59.59 91.71,75.28 97.76,81.33 119.51,59.59 "/>
<polygon class="st0" points="75.69,27.88 81.74,21.83 60,0.08 38.26,21.83 44.31,27.88 60,12.2 "/>
</svg>
