<?xml version="1.0" encoding="utf-8"?>
<!-- Generator: Adobe Illustrator 25.4.1, SVG Export Plug-In . SVG Version: 6.00 Build 0)  -->
<svg version="1.1" id="Layer_1" xmlns="http://www.w3.org/2000/svg" xmlns:xlink="http://www.w3.org/1999/xlink" x="0px" y="0px"
	 viewBox="0 0 320 74" style="enable-background:new 0 0 320 74;" xml:space="preserve">
<style type="text/css">
	.st0{fill:#FFFFFF;}
	.st1{fill:#FFFFFF;stroke:#000000;}
</style>
<g>
	<g id="XMLID_1_">
		<g>
			<path class="st0" d="M313.96,40.7v0.05h-26.64h-0.05c0.09,1.08,0.25,2.06,0.49,2.96c0.01,0.01,0.01,0.02,0.01,0.04
				c0.47,1.67,1.22,3.01,2.26,4.03c1.6,1.56,3.77,2.34,6.52,2.34c1.65,0,3.07-0.38,4.27-1.15c1.72-1.11,2.98-3.13,2.91-5.23
				l10.23-0.01c-0.04,0.36-0.12,1.8-0.85,3.68c-0.17,0.43-0.35,0.85-0.55,1.26c-1.01,2.12-2.65,4.5-5.33,6.36
				c-3.03,2.1-6.55,3.15-10.56,3.15c-6.31,0-11.13-1.73-14.46-5.21c-2.21-2.31-3.66-5.22-4.41-8.71c-0.01-0.06-0.03-0.11-0.04-0.18
				v13.06v0.04H267.7V5.5h0.04h10.02v27.17c0.01-0.06,0.03-0.12,0.04-0.19c0.2-0.94,0.43-1.85,0.72-2.71
				c0.56-1.7,1.31-3.26,2.24-4.67c0.36-0.54,0.74-1.06,1.15-1.55c0.01-0.01,0.02-0.03,0.04-0.04c0.2-0.23,0.39-0.46,0.6-0.68
				c0.2-0.22,0.41-0.42,0.62-0.62c3.08-2.89,7.34-4.34,12.77-4.34c5.58,0,9.99,1.77,13.2,5.31c3.21,3.53,4.82,8.79,4.82,15.77V40.7z
				 M303.59,34.21c0-0.02-0.01-0.03-0.01-0.05c-0.22-2.41-1.01-4.36-2.39-5.82c-1.39-1.48-3.19-2.22-5.41-2.22
				c-2.39,0-4.27,0.67-5.64,2.01c-1.38,1.34-2.24,3.37-2.58,6.08H303.59z"/>
			<rect x="255.97" y="18.87" class="st0" width="8.73" height="38.31"/>
			<rect x="255.94" y="5.5" class="st0" width="8.76" height="9.37"/>
			<path class="st0" d="M181.62,71.95v-0.96V45.64v-0.05c-0.89,2.79-2.31,5.2-4.29,7.18c-0.01,0.01-0.01,0.01-0.02,0.02
				c-0.22,0.23-0.45,0.44-0.69,0.65c-3.5,3.17-7.97,4.74-13.4,4.74c-5.71,0-10.38-1.78-14.03-5.35c-1.43-1.4-2.56-3.01-3.43-4.83
				c-0.93,2.2-2.19,4.07-3.8,5.6c-0.54,0.51-1.12,0.98-1.74,1.4c-0.01,0.02-0.02,0.02-0.03,0.03c-0.18,0.12-0.36,0.24-0.54,0.35
				c-0.01,0.01-0.02,0.02-0.04,0.03c-2.89,1.85-6.22,2.77-9.98,2.77c-6.31,0-11.13-1.73-14.46-5.21s-4.99-8.31-4.99-14.47
				c0-2.68,0.29-5.14,0.89-7.37c0.01-0.06,0.03-0.12,0.04-0.17c0.27-0.99,0.6-1.93,0.99-2.83c-0.19-0.01-0.36-0.01-0.57-0.01
				c-2.73,0-4.86,0.57-6.37,1.71c-0.22,0.17-0.43,0.35-0.62,0.54c-1.54,1.53-2.31,3.82-2.31,6.89v19.89v0.03H92.17V49v-0.03
				c-0.25,0.51-0.53,1.01-0.82,1.49c-0.07,0.1-0.14,0.2-0.21,0.3c-0.24,0.38-0.49,0.74-0.77,1.1c-0.09,0.11-0.18,0.22-0.27,0.34
				c-0.27,0.32-0.55,0.63-0.84,0.93c-0.11,0.11-0.21,0.22-0.32,0.33c-0.11,0.1-0.2,0.21-0.31,0.31c-0.09,0.08-0.18,0.16-0.27,0.23
				c-0.2,0.18-0.41,0.35-0.62,0.51c-0.47,0.38-0.98,0.72-1.5,1.04c-0.55,0.34-1.12,0.66-1.71,0.93c-1.36,0.65-2.81,1.09-4.3,1.36
				c-0.1,0.02-0.21,0.04-0.32,0.06c-0.19,0.03-0.38,0.06-0.57,0.09c-0.19,0.02-0.38,0.05-0.57,0.07c-0.21,0.02-0.43,0.04-0.64,0.05
				c-0.17,0.02-0.33,0.03-0.5,0.04c-0.37,0.02-0.75,0.03-1.13,0.03c-6.31,0-11.13-1.73-14.47-5.21c-0.46-0.49-0.89-1.02-1.29-1.56
				c-0.01-0.01-0.02-0.03-0.03-0.04v5.94c-1.48,0.26-3.29,0.37-5.44,0.37c-3.98,0-6.78-0.6-8.42-1.81c-1.64-1.2-2.45-3.38-2.45-6.52
				v-3.97v-19.3h-4.03h-0.04l-1.12-2.22v-0.08v-4.91h0.03h5.16v-0.03V8.5h0.03h10.03v10.37h6.25v6.06c0.01-0.02,0.02-0.03,0.03-0.04
				c0.32-0.47,0.66-0.93,1.03-1.37c0.15-0.18,0.3-0.35,0.45-0.52c0.12-0.14,0.25-0.27,0.38-0.4c0.36-0.37,0.73-0.71,1.11-1.02
				c3.01-2.47,7.03-3.71,12.06-3.71c1.4,0,2.84,0.1,4.22,0.36c1.08,0.2,2.13,0.52,3.14,0.92c0.05,0.02,0.1,0.04,0.14,0.06
				c0.11,0.04,0.22,0.1,0.33,0.15c0.32,0.14,0.63,0.28,0.93,0.44c1.53,0.77,2.9,1.78,4.1,3.04c0.12,0.11,0.22,0.22,0.33,0.34
				c0.07,0.07,0.14,0.15,0.21,0.23c0.28,0.32,0.54,0.66,0.79,1.01c0.01,0.01,0.01,0.02,0.02,0.03c0.34,0.46,0.65,0.94,0.94,1.45
				c0.48,0.85,0.89,1.76,1.25,2.73v-0.11v-9.65h0.03h9.61v6.9l0.03-0.06l0.11-0.21c0.44-0.94,0.92-1.79,1.43-2.56
				c0.12-0.18,0.24-0.36,0.37-0.53c0.35-0.49,0.72-0.93,1.09-1.34c0.44-0.47,0.9-0.89,1.38-1.26c1.66-1.29,3.75-1.94,6.26-1.94
				c0.66,0,1.31,0.05,1.94,0.14v6.14c0.01-0.01,0.01-0.01,0.03-0.03c0.14-0.2,0.27-0.39,0.42-0.57c0.07-0.08,0.14-0.17,0.22-0.25
				c0.18-0.21,0.37-0.42,0.56-0.62c0.25-0.26,0.51-0.51,0.79-0.75c0.31-0.28,0.64-0.55,0.98-0.8c2.94-2.17,6.77-3.26,11.48-3.26
				c5.59,0,9.99,1.77,13.2,5.31c0.61,0.67,1.16,1.4,1.65,2.2c0.14,0.23,0.28,0.47,0.41,0.72c0.47,0.85,0.88,1.77,1.22,2.74
				c0.01-0.01,0.02-0.03,0.03-0.05c0.38-0.92,0.83-1.79,1.35-2.61c0.15-0.24,0.3-0.47,0.46-0.7c0.01-0.01,0.01-0.02,0.03-0.03
				c0.24-0.35,0.51-0.7,0.8-1.03c0.03-0.06,0.08-0.11,0.12-0.16c0.33-0.38,0.67-0.74,1.03-1.09c3.65-3.53,8.32-5.3,14.02-5.3
				c5.84,0,10.55,1.81,14.13,5.43c0.45,0.46,0.87,0.94,1.27,1.44c0.72,0.91,1.34,1.9,1.87,2.95c0.44,0.88,0.81,1.81,1.13,2.78v-0.11
				V18.87h0.03h9.57l0.01,5.87l0.03-0.06l0.14-0.27c0.37-0.66,0.77-1.27,1.21-1.83c0.05-0.07,0.09-0.12,0.14-0.17
				c0.1-0.14,0.22-0.28,0.33-0.41c0.03-0.04,0.07-0.07,0.1-0.11c0.14-0.16,0.29-0.32,0.44-0.47c0.19-0.2,0.39-0.39,0.6-0.57
				c1.13-0.99,2.41-1.74,3.84-2.24c1.43-0.49,3.02-0.74,4.76-0.74c4.59,0,8.39,1.75,11.4,5.26c0.43,0.49,0.83,1.02,1.19,1.57
				c1.05,1.57,1.84,3.35,2.39,5.35c0.26,0.93,0.46,1.91,0.61,2.93v-0.2V5.5h0.04h10.03v18.64l0.03-0.09l0.11-0.31
				c0.51-0.87,1.09-1.65,1.75-2.32c0.36-0.38,0.72-0.71,1.11-1.01c2.15-1.69,4.93-2.54,8.33-2.54c3.98,0,7.17,1.17,9.57,3.5
				c2.4,2.33,3.6,5.43,3.6,9.3v26.48v0.03h-10.07V33.4c0-2.34-0.53-4.1-1.6-5.27c-1.06-1.17-2.71-1.76-4.93-1.76
				c-0.34,0-0.66,0.03-0.98,0.06c-0.18,0.01-0.35,0.04-0.52,0.06c-0.1,0.02-0.2,0.04-0.3,0.06c-1.56,0.31-2.97,1.05-4.03,2.32
				c-1.38,1.66-2.07,3.78-2.07,6.35v21.93v0.03h-10.07V42.45v-0.16c-0.55,3.94-1.84,7.31-3.87,10.11c-0.29,0.4-0.61,0.78-0.94,1.15
				c-0.05,0.07-0.1,0.14-0.16,0.2c-0.17,0.18-0.33,0.36-0.52,0.53c-2.64,2.6-6.08,3.9-10.31,3.9c-1.57,0-3.14-0.18-4.63-0.69
				c-0.69-0.23-1.36-0.54-1.99-0.91c-0.63-0.37-1.22-0.81-1.77-1.29c-0.36-0.33-0.7-0.67-1.01-1.04c-0.02-0.02-0.03-0.03-0.05-0.06
				c-0.17-0.2-0.33-0.4-0.48-0.61c-0.03-0.04-0.06-0.09-0.09-0.13c-0.16-0.21-0.3-0.43-0.43-0.66c-0.03-0.05-0.05-0.1-0.08-0.15
				c-0.07-0.1-0.13-0.2-0.18-0.3c-0.02-0.03-0.03-0.06-0.05-0.09c-0.06-0.09-0.11-0.18-0.16-0.27l-0.01,19.94v0.03v0.04h-0.02
				h-10.03h-0.01V71.95z M208.37,38.3c0-3.79-0.76-6.68-2.27-8.68c-1.51-2-3.61-3-6.31-3c-2.16,0-3.91,0.59-5.24,1.77
				c-0.44,0.38-0.83,0.83-1.17,1.34c-1.42,2.09-2.13,5.14-2.13,9.13c0,3.37,0.78,6.04,2.32,8.02c1.55,1.97,3.72,2.96,6.54,2.96
				c2.48,0,4.67-1.23,6.04-3.28C207.63,44.35,208.37,41.6,208.37,38.3z M172.31,39.31c0.02-0.42,0.03-0.84,0.03-1.28
				c0-3.65-0.76-6.51-2.27-8.57c-1.52-2.06-3.8-3.09-6.85-3.09c-1.55,0-2.92,0.29-4.11,0.86c-0.48,0.24-0.92,0.51-1.34,0.83
				c-0.05,0.04-0.11,0.08-0.16,0.13c-0.15,0.11-0.3,0.25-0.44,0.39c-0.01,0.01-0.03,0.02-0.04,0.04c-0.19,0.18-0.37,0.37-0.53,0.57
				c-0.13,0.15-0.24,0.3-0.35,0.46c-0.04,0.05-0.07,0.09-0.11,0.14c-0.99,1.46-1.54,3.23-1.8,5.04c-0.01,0.02-0.01,0.04-0.01,0.06
				c-0.03,0.22-0.06,0.45-0.08,0.67c-0.04,0.3-0.06,0.6-0.08,0.92c-0.01,0.1-0.01,0.2-0.02,0.3c-0.02,0.4-0.03,0.8-0.03,1.22
				c0,3.84,0.79,6.74,2.36,8.7c1.58,1.97,3.83,2.95,6.77,2.95c2.6,0,5.19-0.89,6.8-3.02c0.2-0.27,0.39-0.55,0.56-0.84
				c0.12-0.21,0.23-0.42,0.34-0.64c0.04-0.09,0.09-0.17,0.13-0.26c0.11-0.26,0.22-0.53,0.33-0.8c0.01-0.05,0.03-0.1,0.05-0.15
				c0.11-0.3,0.2-0.61,0.29-0.93c0.01-0.03,0.02-0.06,0.03-0.1c0.08-0.32,0.16-0.66,0.22-1.01c0.01-0.03,0.02-0.07,0.03-0.11
				c0.06-0.33,0.11-0.68,0.15-1.03c0.01-0.06,0.02-0.12,0.02-0.18c0.04-0.33,0.07-0.68,0.09-1.03
				C172.29,39.47,172.3,39.39,172.31,39.31z M136.67,43.75c2.56,0,5.12,0.01,7.68,0c-0.32-1.03-0.33-1.29-0.5-3.04
				c0,0-23.57,0-23.58,0c0,0.02,0,0.04,0.01,0.05c0,0.03,0,0.06,0.01,0.09c0.08,0.52,0.36,2.32,0.46,2.78
				c0,0.01,0.01,0.03,0.01,0.04c0,0.02,0,0.03,0.01,0.04c0.08,0.28,0.18,0.56,0.27,0.83c0.04,0.09,0.06,0.19,0.1,0.28
				c0.09,0.24,0.21,0.48,0.33,0.71c0.05,0.12,0.1,0.24,0.16,0.35c0.12,0.22,0.26,0.42,0.4,0.63c0.08,0.12,0.14,0.24,0.22,0.36
				c0.24,0.31,0.49,0.61,0.77,0.88c0.8,0.78,1.74,1.36,2.82,1.75c1.17,0.42,2.44,0.58,3.68,0.58c0.24,0,0.47-0.01,0.7-0.03
				c0.17-0.02,0.33-0.03,0.48-0.05c0.02,0,0.03,0,0.04-0.01c1.22-0.19,2.38-0.65,3.35-1.33c0.49-0.36,0.92-0.77,1.3-1.24
				c0.78-1.07,1.28-2.42,1.28-3.64V43.75z M120.55,34.18h16c-0.22-2.43-1.02-4.37-2.4-5.84c-1.39-1.48-3.19-2.22-5.4-2.22
				c-1.8,0-3.3,0.37-4.52,1.12c0,0.01,0,0.01-0.01,0.01c-0.02,0.01-0.04,0.03-0.06,0.04c-0.25,0.16-0.48,0.33-0.69,0.52
				c-0.04,0.03-0.08,0.07-0.12,0.11c-0.97,0.87-1.64,1.99-2.09,3.22c-0.15,0.42-0.28,0.85-0.39,1.31c-0.01,0.03-0.02,0.06-0.02,0.09
				c-0.06,0.24-0.11,0.49-0.16,0.74C120.64,33.57,120.59,33.87,120.55,34.18z M92.09,43.68l0.08-2.93H67.14
				c0.08,1.06,0.24,2.04,0.48,2.92c0,0.02,0.01,0.03,0.01,0.04c0.46,1.68,1.21,3.02,2.25,4.04c1.6,1.56,3.78,2.34,6.53,2.34
				c1.65,0,3.07-0.38,4.27-1.15c1.66-1.06,2.62-3.32,2.75-5.22L92.09,43.68z M67.41,34.18h16c-0.22-2.43-1.02-4.37-2.4-5.84
				c-1.39-1.48-3.19-2.22-5.4-2.22c-1.8,0-3.3,0.37-4.52,1.12c0,0.01,0,0.01-0.01,0.01c-0.02,0.01-0.04,0.03-0.06,0.04
				c-0.25,0.16-0.48,0.33-0.69,0.52c-0.05,0.04-0.09,0.07-0.13,0.11c-0.14,0.13-0.27,0.27-0.4,0.4c-0.2,0.22-0.4,0.45-0.58,0.7
				c-0.06,0.08-0.11,0.17-0.16,0.25c-0.21,0.31-0.4,0.63-0.57,0.98c-0.01,0.02-0.01,0.04-0.02,0.06c-0.14,0.28-0.25,0.56-0.36,0.86
				c-0.01,0.02-0.02,0.04-0.03,0.07c-0.1,0.3-0.2,0.6-0.28,0.91c0,0.02-0.01,0.03-0.01,0.04c-0.08,0.32-0.16,0.64-0.22,0.97
				C67.51,33.49,67.45,33.83,67.41,34.18z M60,26.08h-5.51v21.46c0,1.01,0.27,1.66,0.83,1.97c0.27,0.15,0.62,0.27,1.05,0.34
				c0.14,0.03,0.28,0.05,0.42,0.06c0.32,0.04,0.68,0.05,1.07,0.05c0.7,0,1.32-0.02,1.89-0.05c-1.8-3.08-2.71-6.88-2.71-11.41
				c0-1.84,0.14-3.57,0.42-5.19c0.26-1.5,0.63-2.91,1.13-4.23c0.04-0.1,0.07-0.2,0.11-0.3c0.19-0.48,0.39-0.94,0.61-1.39
				c0-0.01,0-0.02,0.02-0.03C59.53,26.92,59.76,26.5,60,26.08z"/>
			<path class="st0" d="M42.56,45.38c0,3.7-1.14,6.64-3.42,8.83c-0.3,0.29-0.62,0.57-0.97,0.83c-0.02,0.02-0.04,0.03-0.06,0.05
				c-0.03,0.02-0.03,0.02-0.04,0.03c-0.36,0.27-0.74,0.53-1.15,0.76c-2.93,1.75-7.01,2.62-12.22,2.62c-5.22,0-9.32-1.08-12.28-3.23
				c-2.96-2.15-4.67-5.54-5.11-10.15h0.03h10.28c0,1.99,0.64,3.46,1.92,4.43c1.27,0.97,3.21,1.46,5.82,1.46c2.2,0,3.89-0.34,5.06-1
				c0.31-0.18,0.57-0.37,0.79-0.57c0.08-0.07,0.16-0.15,0.23-0.22c0.49-0.54,0.74-1.16,0.74-1.87c0-1.13-0.43-2-1.28-2.62
				c-0.86-0.62-3.76-1.46-8.7-2.52c-5.51-1.17-9.16-2.7-10.95-4.59c-1.8-1.89-2.69-4.15-2.69-6.81c0-2.29,0.5-4.33,1.49-6.12
				c0.36-0.66,0.79-1.27,1.28-1.86c0.12-0.14,0.25-0.29,0.38-0.43c0.29-0.31,0.6-0.61,0.93-0.91c2.72-2.41,6.75-3.62,12.08-3.62
				c4.91,0,8.74,0.96,11.49,2.88c0.16,0.12,0.32,0.24,0.48,0.36c0.2,0.15,0.38,0.31,0.56,0.47c0.76,0.67,1.41,1.43,1.96,2.28
				l1.12,2.22c0.34,0.89,0.61,1.86,0.78,2.89c0.01,0.04,0.01,0.07,0.02,0.11c0.08,0.49,0.13,0.99,0.17,1.51c0,0.01,0,0.02,0.01,0.03
				h-9.94c-0.19-1.67-0.8-2.96-1.84-3.88c-1.03-0.92-2.68-1.38-4.93-1.38c-2.07,0-3.6,0.33-4.59,0.99
				c-0.02,0.01-0.03,0.02-0.04,0.03c-0.24,0.17-0.44,0.34-0.62,0.53c-0.57,0.58-0.86,1.26-0.86,2.04c0,1.01,0.42,1.79,1.25,2.34
				c0.83,0.55,4.04,1.49,9.62,2.8c5.7,1.34,9.33,2.89,10.87,4.66c0.46,0.52,0.85,1.08,1.17,1.67
				C42.17,41.86,42.56,43.51,42.56,45.38z"/>
		</g>
		<g>
		</g>
	</g>
</g>
<rect x="-11" y="-22.5" class="st1" width="0" height="0"/>
</svg>
