<?xml version="1.0" encoding="utf-8"?>
<!-- Generator: Adobe Illustrator 25.4.1, SVG Export Plug-In . SVG Version: 6.00 Build 0)  -->
<svg version="1.1" id="Layer_1" xmlns="http://www.w3.org/2000/svg" xmlns:xlink="http://www.w3.org/1999/xlink" x="0px" y="0px"
	 viewBox="0 0 120 120" style="enable-background:new 0 0 120 120;" xml:space="preserve">
<style type="text/css">
	.st0{opacity:0.05;}
	.st1{fill:#FFFFFF;}
</style>
<g class="st0">
	<g>
		<path class="st1" d="M16.37,3.5C9.09,3.5,3.2,9.4,3.2,16.67s5.89,13.17,13.17,13.17s13.17-5.9,13.17-13.17S23.64,3.5,16.37,3.5z
			 M16.37,26.5c-5.43,0-9.83-4.4-9.83-9.83c0-5.43,4.4-9.83,9.83-9.83s9.83,4.4,9.83,9.83C26.2,22.1,21.8,26.5,16.37,26.5z"/>
		<path class="st1" d="M16.37,9.38c-4.03,0-7.29,3.26-7.29,7.29s3.26,7.29,7.29,7.29s7.29-3.26,7.29-7.29S20.39,9.38,16.37,9.38z
			 M16.37,22.11c-3.01,0-5.45-2.44-5.45-5.45s2.44-5.45,5.45-5.45c3.01,0,5.45,2.44,5.45,5.45S19.37,22.11,16.37,22.11z"/>
		<circle class="st1" cx="16.37" cy="16.67" r="2.12"/>
	</g>
</g>
<g class="st0">
	<g>
		<path class="st1" d="M45.42,78.62c-3.64,0-6.58,2.95-6.58,6.58s2.95,6.58,6.58,6.58S52,88.83,52,85.2S49.05,78.62,45.42,78.62z
			 M45.42,90.12c-2.72,0-4.92-2.2-4.92-4.92c0-2.72,2.2-4.92,4.92-4.92c2.72,0,4.92,2.2,4.92,4.92
			C50.33,87.91,48.13,90.12,45.42,90.12z"/>
		<path class="st1" d="M45.42,81.55c-2.01,0-3.65,1.63-3.65,3.65c0,2.01,1.63,3.65,3.65,3.65s3.65-1.63,3.65-3.65
			C49.06,83.19,47.43,81.55,45.42,81.55z M45.42,87.92c-1.5,0-2.72-1.22-2.72-2.72c0-1.5,1.22-2.72,2.72-2.72
			c1.5,0,2.72,1.22,2.72,2.72C48.14,86.7,46.92,87.92,45.42,87.92z"/>
		<circle class="st1" cx="45.42" cy="85.2" r="1.06"/>
	</g>
</g>
<g class="st0">
	<g>
		<path class="st1" d="M92.76,23.82c-14.54,0-26.33,11.79-26.33,26.33s11.79,26.33,26.33,26.33s26.33-11.79,26.33-26.33
			S107.3,23.82,92.76,23.82z M92.76,69.81c-10.86,0-19.67-8.81-19.67-19.67c0-10.86,8.81-19.67,19.67-19.67s19.67,8.81,19.67,19.67
			C112.43,61.01,103.62,69.81,92.76,69.81z"/>
		<path class="st1" d="M92.76,35.57c-8.05,0-14.58,6.53-14.58,14.58s6.53,14.58,14.58,14.58s14.58-6.53,14.58-14.58
			S100.82,35.57,92.76,35.57z M92.76,61.04c-6.02,0-10.89-4.88-10.89-10.89s4.88-10.89,10.89-10.89c6.01,0,10.89,4.88,10.89,10.89
			S98.78,61.04,92.76,61.04z"/>
		<circle class="st1" cx="92.76" cy="50.15" r="4.25"/>
	</g>
</g>
</svg>
